<?xml version="1.0" encoding="UTF-8" standalone="no"?>
<!-- Created with Inkscape (http://www.inkscape.org/) -->

<svg
   width="144"
   height="48"
   version="1.1"
   viewBox="0 0 38.1 12.7"
   id="svg26"
   sodipodi:docname="org.prismlauncher.PrismLauncher.logo.svg"
   inkscape:version="1.3.2 (091e20e, 2023-11-25, custom)"
   xmlns:inkscape="http://www.inkscape.org/namespaces/inkscape"
   xmlns:sodipodi="http://sodipodi.sourceforge.net/DTD/sodipodi-0.dtd"
   xmlns="http://www.w3.org/2000/svg"
   xmlns:svg="http://www.w3.org/2000/svg"
   xmlns:rdf="http://www.w3.org/1999/02/22-rdf-syntax-ns#"
   xmlns:cc="http://creativecommons.org/ns#"
   xmlns:dc="http://purl.org/dc/elements/1.1/">
  <defs
     id="defs26" />
  <sodipodi:namedview
     id="namedview26"
     pagecolor="#ffffff"
     bordercolor="#000000"
     borderopacity="0.25"
     inkscape:showpageshadow="2"
     inkscape:pageopacity="0.0"
     inkscape:pagecheckerboard="0"
     inkscape:deskcolor="#d1d1d1"
     inkscape:zoom="8"
     inkscape:cx="75"
     inkscape:cy="16.8125"
     inkscape:window-width="1680"
     inkscape:window-height="997"
     inkscape:window-x="-8"
     inkscape:window-y="-8"
     inkscape:window-maximized="1"
     inkscape:current-layer="g62" />
  <title
     id="title1">Prism Launcher Logo</title>
  <metadata
     id="metadata26">
    <rdf:RDF>
      <cc:Work
         rdf:about="">
        <dc:title>Prism Launcher Logo</dc:title>
        <dc:date>19/10/2022</dc:date>
        <dc:creator>
          <cc:Agent>
            <dc:title>Prism Launcher</dc:title>
          </cc:Agent>
        </dc:creator>
        <dc:contributor>
          <cc:Agent>
            <dc:title>AutiOne, Boba, ely, Fulmine, gon sawa, Pankakes, tobimori, Zeke</dc:title>
          </cc:Agent>
        </dc:contributor>
        <dc:source>https://github.com/PrismLauncher/PrismLauncher</dc:source>
        <dc:publisher>
          <cc:Agent>
            <dc:title>Prism Launcher</dc:title>
          </cc:Agent>
        </dc:publisher>
        <cc:license
           rdf:resource="http://creativecommons.org/licenses/by-sa/4.0/" />
      </cc:Work>
      <cc:License
         rdf:about="http://creativecommons.org/licenses/by-sa/4.0/">
        <cc:permits
           rdf:resource="http://creativecommons.org/ns#Reproduction" />
        <cc:permits
           rdf:resource="http://creativecommons.org/ns#Distribution" />
        <cc:requires
           rdf:resource="http://creativecommons.org/ns#Notice" />
        <cc:requires
           rdf:resource="http://creativecommons.org/ns#Attribution" />
        <cc:permits
           rdf:resource="http://creativecommons.org/ns#DerivativeWorks" />
        <cc:requires
           rdf:resource="http://creativecommons.org/ns#ShareAlike" />
      </cc:License>
    </rdf:RDF>
  </metadata>
  <g
     stroke-width="0.26458"
     id="g24"
     transform="matrix(1.0000015,0,0,1,2.5207819e-4,9.6656667e-5)">
    <path
       d="M 6.35,6.35"
       fill="#99cd61"
       id="path4-0" />
    <path
       d="M 6.35,0.52917 3.8292,4.89477 6.35,6.34997 8.8703,4.89477 8.97985,1.79517 C 7.82875,1.13058 6.64105,0.52907 6.35005,0.52907 Z"
       fill="#df6277"
       id="path6-2"
       style="fill:#207e5c;fill-opacity:1" />
    <path
       d="M 8.9798,1.7952 6.35,6.35 8.8703,7.8052 11.3911,3.4396 C 11.24558,3.18755 10.131,2.45985 8.9799,1.7953 Z"
       fill="#fb9168"
       id="path8-9"
       style="fill:#379070;fill-opacity:1" />
    <path
       d="M 11.391,3.4396 6.35,6.35 8.8703,7.8052 11.6092,6.35 c 0,-1.3292 -0.07255,-2.6584 -0.21808,-2.9104 z"
       fill="#f3db6c"
       id="path10-0"
       style="fill:#379070;fill-opacity:1" />
    <path
       d="m 6.35,6.35 v 2.9104 h 5.041 C 11.53652,9.00835 11.60907,7.6792 11.60908,6.35 Z"
       fill="#7ab392"
       id="path12-4"
       style="fill:#207e5c;fill-opacity:1" />
    <path
       d="m 6.35,6.35 v 2.9104 l 2.6298,1.6443 c 1.1511,-0.66459 2.2657,-1.3923 2.4112,-1.6443 z"
       fill="#4b7cbc"
       id="path14-8"
       style="fill:#136244;fill-opacity:1" />
    <path
       d="M 6.35,6.35 3.8292,7.8052 6.35,12.1708 c 0.29104,0 1.4787,-0.60148 2.6298,-1.2661 z"
       fill="#6f488c"
       id="path16-2"
       style="fill:#0c3c2a;fill-opacity:1" />
    <path
       d="M 3.8292,4.8948 1.3089,9.2604 c 0.29104,0.5041 4.459,2.9104 5.041,2.9104 V 6.35 Z"
       fill="#4d3f33"
       id="path18-4"
       style="fill:#36302b;fill-opacity:1" />
    <path
       d="m 1.309,3.4396 c -0.29104,0.5041 -0.29104,5.3167 0,5.8208 L 6.35,6.35 V 3.4396 Z"
       fill="#7a573b"
       id="path20-0"
       style="fill:#4a3c31;fill-opacity:1" />
    <path
       d="m 6.35,0.52917 c -0.58208,-2e-8 -4.75,2.4063 -5.041,2.9104 l 5.041,2.9104 z"
       fill="#99cd61"
       id="path22-8"
       style="fill:#50b469;fill-opacity:1" />
  </g>
  <g
     transform="matrix(0.88000141,0,0,0.88,-10.905766,-1.2420033)"
     id="g32">
    <g
       transform="translate(13.26,2.2776)"
       id="g28">
      <path
         transform="matrix(0.96975,0,0,0.96975,0.1921,0.1921)"
         d="m 6.3498,2.9393 c -0.34105,0 -2.7827,1.4099 -2.9532,1.7052 L 6.3498,9.7602 9.3036,4.6445 C 9.13308,4.34915 6.6909,2.9393 6.3498,2.9393 Z"
         fill="#ffffff"
         stroke-width="0.26458"
         id="path26-0" />
    </g>
    <path
       d="m 16.746,6.9737 2.8639,4.9609 c 0.33073,0 2.6991,-1.3672 2.8644,-1.6536 0.16536,-0.28642 0.16536,-3.0209 0,-3.3073 l -2.8644,1.6536 z"
       fill="#dfdfdf"
       stroke-width="0.26458"
       id="path30"
       style="fill:#dfe9df;fill-opacity:1" />
  </g>
  <path
     d="m 3.8301582,4.8948967 c -0.1455103,0.25205 -0.1455303,2.6584 0,2.9104 0.1455302,0.25204 2.2292036,1.4552 2.520304,1.4552 v -2.9104 z"
     fill="#d6d2d2"
     stroke-width="0.264581"
     id="path34"
     style="fill:#d5d2d2;fill-opacity:1" />
  <g
     fill="#14191e"
     stroke-width="0.26458"
     aria-label="Prism Launcher"
     id="g62"
     style="fill:#ffffff;fill-opacity:1"
     transform="matrix(1.0000015,0,0,1,2.5207819e-4,9.6656667e-5)">
    <path
       d="m 15.226,7.258 h -0.81439 v 3.3433 h 1.8812 V 9.97265 h -1.0668 z"
       id="path46"
       style="fill:#000000;fill-opacity:1" />
    <path
       d="m 16.521,9.2678 c 0,0.8382 0.51911,1.3716 1.1668,1.3716 0.39529,0 0.67628,-0.18098 0.82391,-0.41434 V 10.6013 H 19.3261 V 7.9438 H 18.51171 V 8.32004 C 18.36883,8.08668 18.08785,7.9057 17.69256,7.9057 c -0.65246,0 -1.1716,0.52387 -1.1716,1.3621 z m 1.9907,0.00476 c 0,0.42386 -0.27146,0.65722 -0.58102,0.65722 -0.3048,0 -0.58102,-0.23812 -0.58102,-0.66199 0,-0.42387 0.27622,-0.65246 0.58102,-0.65246 0.30956,0 0.58102,0.23336 0.58102,0.65722 z"
       id="path48"
       style="fill:#000000;fill-opacity:1" />
    <path
       d="M 22.541,10.601 V 7.9435 h -0.81439 v 1.443 c 0,0.36195 -0.20002,0.56198 -0.51435,0.56198 -0.3048,0 -0.50959,-0.20002 -0.50959,-0.56198 v -1.443 h -0.80962 v 1.5526 c 0,0.70961 0.41434,1.1335 1.0287,1.1335 0.35719,0 0.64294,-0.16192 0.80486,-0.39052 v 0.36195 z"
       id="path50"
       style="fill:#000000;fill-opacity:1" />
    <path
       d="m 24.96,9.1583 v 1.443 h 0.80962 V 9.0487 c 0,-0.71438 -0.40958,-1.1335 -1.0239,-1.1335 -0.35719,0 -0.64294,0.15716 -0.80486,0.381 V 7.94378 h -0.81439 v 2.6575 h 0.81439 v -1.443 c 0,-0.36195 0.20002,-0.56198 0.50959,-0.56198 0.30956,0 0.50959,0.20002 0.50959,0.56198 z"
       id="path52"
       style="fill:#000000;fill-opacity:1" />
    <path
       d="m 26.175,9.2726 c 0,0.84296 0.55245,1.3668 1.3335,1.3668 0.66675,0 1.1382,-0.38576 1.2764,-1.0001 h -0.86678 c -0.07144,0.19526 -0.20002,0.3048 -0.42386,0.3048 -0.29051,0 -0.49054,-0.2286 -0.49054,-0.67151 0,-0.44291 0.20002,-0.67151 0.49054,-0.67151 0.22384,0 0.35719,0.11906 0.42386,0.3048 h 0.86678 c -0.13811,-0.63341 -0.6096,-1.0001 -1.2764,-1.0001 -0.78105,0 -1.3335,0.52864 -1.3335,1.3668 z"
       id="path54"
       style="fill:#000000;fill-opacity:1" />
    <path
       d="m 29.218,7.0771 v 3.5243 h 0.81439 v -1.443 c 0,-0.36195 0.20002,-0.56198 0.50959,-0.56198 0.30956,0 0.50959,0.20002 0.50959,0.56198 v 1.443 h 0.80962 V 9.0488 c 0,-0.71438 -0.40481,-1.1335 -1.0096,-1.1335 -0.36671,0 -0.65722,0.15716 -0.81915,0.38576 v -1.224 z"
       id="path56"
       style="fill:#000000;fill-opacity:1" />
    <path
       d="m 33.599,8.5582 c 0.27146,0 0.50006,0.16669 0.50006,0.4572 h -1.0192 c 0.04762,-0.29528 0.25241,-0.4572 0.51911,-0.4572 z m 1.2716,1.162 h -0.86678 c -0.06667,0.14288 -0.19526,0.25718 -0.42386,0.25718 -0.26194,0 -0.47625,-0.16192 -0.50482,-0.50959 h 1.8431 c 0.0095,-0.080963 0.01429,-0.16192 0.01429,-0.23812 0,-0.80962 -0.54769,-1.324 -1.324,-1.324 -0.79058,0 -1.343,0.52387 -1.343,1.3668 0,0.84296 0.56198,1.3668 1.343,1.3668 0.66199,0 1.1335,-0.40005 1.2621,-0.91916 z"
       id="path58"
       style="fill:#000000;fill-opacity:1" />
    <path
       d="m 36.176,9.3678 c 0,-0.4572 0.22384,-0.59055 0.6096,-0.59055 h 0.22384 V 7.91524 c -0.35719,0 -0.6477,0.1905 -0.83344,0.47149 V 7.94382 h -0.81439 v 2.6575 H 36.176 Z"
       id="path60"
       style="fill:#000000;fill-opacity:1" />
    <g
       id="text1"
       style="font-weight:bold;font-size:4.93889px;font-family:Poppins;-inkscape-font-specification:'Poppins, Bold';fill:#207e5c;stroke-width:0.0700035"
       aria-label="ElyPrism">
      <path
         d="m 15.256743,3.0480644 v 0.7013224 h 1.131006 v 0.6519334 h -1.131006 v 0.7605891 h 1.279173 V 5.8385372 H 14.412193 V 2.3714365 h 2.123723 v 0.6766279 z m 2.671941,-0.8643058 v 3.6547786 h -0.84455 V 2.1837586 Z m 3.427591,0.898878 -1.728612,4.0647065 H 18.718907 L 19.351085,5.7446983 18.229957,3.0826366 h 0.943328 l 0.637117,1.7236726 0.632178,-1.7236726 z"
         id="path1" />
      <path
         style="fill:#000000"
         d="m 24.304792,3.4876256 q 0,0.3012723 -0.138289,0.5531557 -0.138289,0.2469445 -0.424745,0.4000501 -0.286455,0.1531055 -0.7112,0.1531055 h -0.523522 v 1.2446003 h -0.84455 V 2.3714365 h 1.368072 q 0.414867,0 0.701323,0.1432278 0.286455,0.1432278 0.429683,0.3951112 0.143228,0.2518833 0.143228,0.5778501 z m -1.338439,0.4346223 q 0.242005,0 0.360539,-0.1135945 0.118533,-0.1135944 0.118533,-0.3210278 0,-0.2074334 -0.118533,-0.3210279 -0.118534,-0.1135944 -0.360539,-0.1135944 h -0.459317 v 0.8692446 z m 2.622553,-0.3802945 q 0.148167,-0.227189 0.370417,-0.3556001 0.22225,-0.13335 0.493889,-0.13335 v 0.8939391 h -0.232128 q -0.316089,0 -0.474133,0.1382889 -0.158045,0.13335 -0.158045,0.4741334 v 1.2791725 h -0.84455 V 3.0826366 h 0.84455 z M 27.282942,2.796181 q -0.22225,0 -0.365477,-0.1284112 -0.138289,-0.13335 -0.138289,-0.3259667 0,-0.1975556 0.138289,-0.3259667 0.143227,-0.1333501 0.365477,-0.1333501 0.217312,0 0.3556,0.1333501 0.143228,0.1284111 0.143228,0.3259667 0,0.1926167 -0.143228,0.3259667 -0.138288,0.1284112 -0.3556,0.1284112 z m 0.419806,0.2864556 v 2.7559006 h -0.84455 V 3.0826366 Z m 1.733551,2.7954117 q -0.360539,0 -0.642056,-0.1234722 Q 28.512727,5.6311038 28.349743,5.4187316 28.18676,5.2014204 28.167004,4.9347203 h 0.834673 q 0.01482,0.1432279 0.13335,0.2321279 0.118533,0.0889 0.291394,0.0889 0.158045,0 0.242006,-0.059267 0.0889,-0.064206 0.0889,-0.1629834 0,-0.1185333 -0.123472,-0.1728611 Q 29.510382,4.8013703 29.233804,4.7322259 28.937471,4.6630814 28.739915,4.5889981 28.54236,4.5099758 28.399132,4.3469924 28.255904,4.1790702 28.255904,3.8975535 q 0,-0.2370668 0.128411,-0.4296835 0.13335,-0.1975556 0.385234,-0.31115 0.256822,-0.1135945 0.607483,-0.1135945 0.518584,0 0.814917,0.2568223 0.301272,0.2568222 0.345722,0.6815668 h -0.780344 q -0.01976,-0.1432278 -0.128411,-0.227189 -0.103717,-0.083961 -0.276578,-0.083961 -0.148167,0 -0.227189,0.059267 -0.07902,0.054328 -0.07902,0.1531056 0,0.1185333 0.123472,0.1778 0.128411,0.059267 0.395111,0.1185334 0.306211,0.079022 0.498828,0.1580445 0.192617,0.074083 0.335845,0.2469445 0.148166,0.1679222 0.153105,0.4543778 0,0.2420056 -0.138289,0.4346224 -0.13335,0.1876778 -0.390172,0.2963334 -0.251884,0.1086555 -0.587728,0.1086555 z m 5.151266,-2.825045 q 0.513644,0 0.814917,0.31115 0.306211,0.3111501 0.306211,0.8643058 V 5.8385372 H 34.869082 V 4.3420536 q 0,-0.2667001 -0.143228,-0.4099279 Q 34.587565,3.783959 34.34062,3.783959 q -0.246944,0 -0.390172,0.1481667 -0.138289,0.1432278 -0.138289,0.4099279 V 5.8385372 H 32.972548 V 4.3420536 q 0,-0.2667001 -0.143228,-0.4099279 -0.138289,-0.1481667 -0.385233,-0.1481667 -0.246945,0 -0.390173,0.1481667 -0.138289,0.1432278 -0.138289,0.4099279 v 1.4964836 h -0.84455 V 3.0826366 h 0.84455 V 3.4283589 Q 32.044036,3.2554978 32.25147,3.15672 q 0.207433,-0.1037167 0.469194,-0.1037167 0.31115,0 0.553156,0.13335 0.246945,0.13335 0.385233,0.3802945 0.143228,-0.2271889 0.390173,-0.3704167 0.246944,-0.1432278 0.538339,-0.1432278 z"
         id="path2" />
    </g>
  </g>
</svg>
